# Aspose.3D Wavefront OBJ Exporter
# Copyright 2004-2021 Aspose Pty Ltd.
# File created: 05/17/2021 05:19:16


#
# object obj_15734885
#

v 38.29999923706054688 9.35000038146972656 15
v 38.29999923706054688 25.64999961853027344 15
v 38.47573471069335936 9.17426395416259766 15.42426395416259768
v 38.47573471069335936 25.82573699951171872 15.42426395416259768
v 37.40000152587890624 24.75 16.5
v 37.40000152587890624 10.25 16.5
v 1.524263858795166 25.82573699951171872 15.42426395416259768
v 1.69999992847442624 25.64999961853027344 15
v 1.52426409721374512 9.17426395416259766 15.42426395416259768
v 1.70000004768371584 9.35000038146972656 15
v 2.59999990463256832 24.75 16.5
v 2.59999990463256832 10.25 16.5
v 37.90000152587890624 8.3357868194580078 18
v 37.90000152587890624 2.09999990463256836 18
v 37.48578643798828128 8.75 18
v 2.09999990463256836 2.09999990463256836 18
v 2.51421356201171872 8.75 18
v 2.09999990463256836 8.3357868194580078 18
v 37.48578643798828128 26.25 18
v 2.51421356201171872 26.25 18
v 37.90000152587890624 32.90000152587890624 18
v 2.09999990463256836 32.90000152587890624 18
v 2.09999990463256836 26.66421318054199216 18
v 37.90000152587890624 26.66421318054199216 18
v 37.90000152587890624 2.09999990463256836 15
v 37.90000152587890624 8.3357868194580078 15
v 2.09999990463256836 32.90000152587890624 15
v 2.09999990463256836 26.66421318054199216 15
v 2.09999990463256836 8.3357868194580078 15
v 2.09999990463256836 2.09999990463256836 15
v 4.01421356201171875 24.75 16.5
v 4.01421356201171875 10.25 16.5
v 35.98578643798828128 24.75 16.5
v 35.98578643798828128 10.25 16.5
v 37.90000152587890624 26.66421318054199216 15
v 37.90000152587890624 32.90000152587890624 15
v 37.48578643798828128 26.25 15
v 37.48578643798828128 8.75 15
v 2.51421332359313968 26.25 15
v 2.51421356201171872 8.75 15
v 38.90000152587890624 26.25 18
v 38.90000152587890624 8.75 18
v 38.90000152587890624 26.25 15
v 38.90000152587890624 8.75 15
v 38.90000152587890624 2 18
v 38.90000152587890624 2 15
v 1.10000002384185792 26.25 18
v 1.10000002384185792 8.75 18
v 1.10000002384185792 26.25 15
v 1.10000002384185792 8.75 15
v 1.10000002384185792 33 18
v 1.10000002384185792 33 15
v 38.86933135986328128 1.7670629024505616 15
v 38.86933135986328128 1.7670629024505616 18
v 38.7794227600097656 1.54999995231628416 15
v 38.7794227600097656 1.54999995231628416 18
v 38.63639450073242184 1.363603949546814 15
v 38.63639450073242184 1.363603949546814 18
v 38.45000076293945312 1.22057712078094484 15
v 38.45000076293945312 1.22057712078094484 18
v 38.23293685913085936 1.13066673278808594 15
v 38.23293685913085936 1.13066673278808594 18
v 38 1.10000002384185792 15
v 38 1.10000002384185792 18
v 38.90000152587890624 33 18
v 38.90000152587890624 33 15
v 38 33.90000152587890624 15
v 38 33.90000152587890624 18
v 38.23293685913085936 33.86933135986328128 15
v 38.23293685913085936 33.86933135986328128 18
v 38.45000076293945312 33.7794227600097656 15
v 38.45000076293945312 33.7794227600097656 18
v 38.63639450073242184 33.63639450073242184 15
v 38.63639450073242184 33.63639450073242184 18
v 38.7794227600097656 33.45000076293945312 15
v 38.7794227600097656 33.45000076293945312 18
v 38.86933135986328128 33.23293685913085936 15
v 38.86933135986328128 33.23293685913085936 18
v 2 33.90000152587890624 18
v 2 33.90000152587890624 15
v 1.13066673278808594 33.23293685913085936 15
v 1.13066673278808594 33.23293685913085936 18
v 1.22057712078094484 33.45000076293945312 15
v 1.22057712078094484 33.45000076293945312 18
v 1.363603949546814 33.63639450073242184 15
v 1.363603949546814 33.63639450073242184 18
v 1.54999995231628416 33.7794227600097656 15
v 1.54999995231628416 33.7794227600097656 18
v 1.7670629024505616 33.86933135986328128 15
v 1.7670629024505616 33.86933135986328128 18
v 1.10000002384185792 2 15
v 1.10000002384185792 2 18
v 2 1.10000002384185792 15
v 2 1.10000002384185792 18
v 1.7670629024505616 1.13066673278808594 15
v 1.7670629024505616 1.13066673278808594 18
v 1.54999995231628416 1.22057712078094484 15
v 1.54999995231628416 1.22057712078094484 18
v 1.363603949546814 1.363603949546814 15
v 1.363603949546814 1.363603949546814 18
v 1.22057712078094484 1.54999995231628416 15
v 1.22057712078094484 1.54999995231628416 18
v 1.13066673278808594 1.7670629024505616 15
v 1.13066673278808594 1.7670629024505616 18
v 38 0 19
v 38 0 18
v 38.34729766845703124 0.03038449399173259 19
v 38.34729766845703124 0.03038449399173259 18
v 38.68404006958007816 0.12061475962400436 19
v 38.68404006958007816 0.12061475962400436 18
v 39 0.2679491937160492 19
v 39 0.2679491937160492 18
v 39.28557586669921876 0.46791112422943112 19
v 39.28557586669921876 0.46791112422943112 18
v 39.53208923339843752 0.71442478895187376 19
v 39.53208923339843752 0.71442478895187376 18
v 39.7320518493652344 1 19
v 39.7320518493652344 1 18
v 39.8793869018554688 1.31595969200134276 19
v 39.8793869018554688 1.31595969200134276 18
v 39.9696159362792968 1.65270364284515384 19
v 39.9696159362792968 1.65270364284515384 18
v 40 2 19
v 40 2 18
v 2 0 18
v 2 0 19
v 0 2 19
v 0 2 18
v 0.03038449399173259 1.65270364284515384 19
v 0.03038449399173259 1.65270364284515384 18
v 0.12061475962400436 1.31595969200134276 19
v 0.12061475962400436 1.31595969200134276 18
v 0.2679491937160492 1 19
v 0.2679491937160492 1 18
v 0.46791112422943112 0.71442478895187376 19
v 0.46791112422943112 0.71442478895187376 18
v 0.71442478895187376 0.46791112422943112 19
v 0.71442478895187376 0.46791112422943112 18
v 1 0.2679491937160492 19
v 1 0.2679491937160492 18
v 1.31595969200134276 0.12061475962400436 19
v 1.31595969200134276 0.12061475962400436 18
v 1.65270364284515384 0.03038449399173259 19
v 1.65270364284515384 0.03038449399173259 18
v -3.3306690738754696E-15 33 18
v 0 33 19
v 2 35 19
v 2 35 18
v 1.65270364284515384 34.9696159362792968 19
v 1.65270364284515384 34.9696159362792968 18
v 1.31595969200134276 34.8793869018554688 19
v 1.31595969200134276 34.8793869018554688 18
v 1 34.7320518493652344 19
v 1 34.7320518493652344 18
v 0.71442478895187376 34.53208923339843752 19
v 0.71442478895187376 34.53208923339843752 18
v 0.46791112422943112 34.28557586669921876 19
v 0.46791112422943112 34.28557586669921876 18
v 0.2679491937160492 34 19
v 0.2679491937160492 34 18
v 0.12061475962400436 33.68404006958007816 19
v 0.12061475962400436 33.68404006958007816 18
v 0.03038449399173259 33.34729766845703124 19
v 0.03038449399173259 33.34729766845703124 18
v 38 35 18
v 38 35 19
v 40 33 19
v 40 33 18
v 39.9696159362792968 33.34729766845703124 19
v 39.9696159362792968 33.34729766845703124 18
v 39.8793869018554688 33.68404006958007816 19
v 39.8793869018554688 33.68404006958007816 18
v 39.7320518493652344 34 19
v 39.7320518493652344 34 18
v 39.53208923339843752 34.28557586669921876 19
v 39.53208923339843752 34.28557586669921876 18
v 39.28557586669921876 34.53208923339843752 19
v 39.28557586669921876 34.53208923339843752 18
v 39 34.7320518493652344 19
v 39 34.7320518493652344 18
v 38.68404006958007816 34.8793869018554688 19
v 38.68404006958007816 34.8793869018554688 18
v 38.34729766845703124 34.9696159362792968 19
v 38.34729766845703124 34.9696159362792968 18
# 184 vertices

vn 0.92387950420379632 -1.0971218600275279E-08 -0.38268348574638368
vn 0.7071067690849304 -8.397007533744727E-09 0.7071067690849304
vn -0.92387950420379632 -1.0971218600275279E-08 -0.38268348574638368
vn -0.7071067690849304 -8.397007533744727E-09 0.7071067690849304
vn 0 0 -1
vn -1 0 0
vn 1 -1.4243246790352225E-16 0
vn 1 -7.121623395176113E-17 1.4802974102831747E-16
vn 1 7.121623395176113E-17 -1.4802974102831747E-16
vn 1 1.4243246790352225E-16 0
vn 0.7071068286895752 1.7943914877188297E-17 0.7071067690849304
vn 0.7071068286895752 5.518007715416715E-18 0.7071067690849304
vn -0.7071068286895752 0 0.7071067690849304
vn -0.7071068286895752 -2.165644605749736E-16 0.7071067690849304
vn 7.442836155876174E-17 1 0
vn 6.202363022067152E-17 1 1.4802974102831747E-16
vn 0 -1 0
vn -0.7071067690849304 0.7071067690849304 -3.3495308035449284E-15
vn -0.7071067690849304 0.7071067690849304 -3.3495305917866916E-15
vn -0.7071067690849304 0.7071067690849304 -8.370776631461021E-16
vn -0.7071067690849304 8.397006645566307E-09 -0.7071067690849304
vn -0.7071067690849304 8.397007533744727E-09 -0.7071067690849304
vn -0.7071067690849304 -0.7071067690849304 4.1869132397333645E-16
vn -0.7071067690849304 -0.7071067690849304 -8.370772396296285E-16
vn -0.7071067690849304 -0.7071067690849304 -8.373826479466729E-16
vn 0.7071067690849304 0.7071067690849304 -1.5700924582825668E-15
vn 0.7071067690849304 0.7071067690849304 -7.327103397314859E-16
vn 0.7071067690849304 0.7071067690849304 -7.327097044567755E-16
vn 0.7071067690849304 8.397007533744727E-09 -0.7071067690849304
vn 0.7071067690849304 -0.7071067690849304 -1.0467283099333411E-16
vn 0.7071067690849304 -0.7071067690849304 5.2336402923521745E-16
vn 0.7071067690849304 -0.7071067690849304 5.233641351143359E-16
vn 0.7071068286895752 0 -0.7071067690849304
vn 0.7071068286895752 3.77948946566176E-17 -0.7071067690849304
vn 0.7071067690849304 -0.7071067690849304 2.0433729645938543E-15
vn 0.7071067690849304 -0.7071067690849304 8.373827008862321E-16
vn 0.7071067690849304 -0.7071067690849304 -6.013709038258036E-15
vn 0.7071067690849304 0.7071067690849304 2.1406765096844025E-15
vn 0.7071067690849304 0.7071067690849304 0
vn 0.7071067690849304 0.7071067690849304 -1.387778357264972E-15
vn 1 0 0
vn -0.7071068286895752 -8.074761777452795E-17 -0.7071067690849304
vn -0.7071068286895752 -1.443763191819647E-17 -0.7071067690849304
vn -0.7071067690849304 -0.7071067690849304 1.167641694053631E-15
vn -0.7071067690849304 -0.7071067690849304 8.326676390457818E-16
vn -0.7071067690849304 -0.7071067690849304 9.637354526611033E-16
vn -0.7071067690849304 0.7071067690849304 2.1973156970431663E-15
vn -0.7071067690849304 0.7071067690849304 0
vn -0.7071067690849304 0.7071067690849304 -5.838208470268155E-16
vn -1 -9.868649181306335E-17 1.1686829488064478E-31
vn -1 1.973729571563471E-16 -6.661338147750939E-16
vn 0.99144488573074336 -0.13052618503570556 0
vn 0.92387950420379632 -0.38268342614173888 0
vn 0.92387950420379632 -0.38268342614173888 -2.832426228675912E-17
vn 0.79335331916809088 -0.60876142978668216 -4.5057398159767823E-17
vn 0.79335331916809088 -0.60876142978668216 0
vn 0.60876142978668216 -0.79335331916809088 0
vn 0.60876142978668216 -0.79335331916809088 -5.871994364602863E-17
vn 0.38268342614173888 -0.92387950420379632 -6.838082424805186E-17
vn 0.38268342614173888 -0.92387950420379632 0
vn 0.13052618503570556 -0.99144488573074336 0
vn 0.13052618503570556 0.99144488573074336 0
vn 0.38268342614173888 0.92387950420379632 0
vn 0.60876142978668216 0.79335331916809088 0
vn 0.79335331916809088 0.60876142978668216 0
vn 0.92387950420379632 0.38268342614173888 0
vn 0.99144488573074336 0.13052618503570556 0
vn 0 1 0
vn -0.99144488573074336 0.13052618503570556 -6.604349241664078E-16
vn -0.99144488573074336 0.13052618503570556 0
vn -0.92387950420379632 0.38268342614173888 0
vn -0.79335331916809088 0.60876142978668216 0
vn -0.60876142978668216 0.79335331916809088 0
vn -0.60876142978668216 0.79335331916809088 4.5057398159767823E-17
vn -0.38268342614173888 0.92387950420379632 2.832426228675912E-17
vn -0.38268342614173888 0.92387950420379632 5.664852457351824E-17
vn -0.13052618503570556 0.99144488573074336 1.9321757895324E-17
vn -0.13052618503570556 0.99144488573074336 3.8643515790648E-17
vn -1 9.868649181306335E-17 0
vn -1 -9.868649181306335E-17 4.440892098500626E-16
vn -0.13052618503570556 -0.99144488573074336 0
vn -0.38268342614173888 -0.92387950420379632 0
vn -0.60876142978668216 -0.79335331916809088 0
vn -0.60876142978668216 -0.79335331916809088 3.1394849364784565E-17
vn -0.79335331916809088 -0.60876142978668216 7.238248582356699E-17
vn -0.79335331916809088 -0.60876142978668216 -4.5057398159767823E-17
vn -0.92387950420379632 -0.38268342614173888 -2.832426228675912E-17
vn -0.92387950420379632 -0.38268342614173888 0
vn -0.99144488573074336 -0.13052618503570556 0
vn -0.99144488573074336 -0.13052618503570556 4.4028997591405146E-16
vn -7.401487051415874E-17 -1 0
vn 3.075532797525344E-15 -1.2129720386544842E-15 -1
vn 2.1068839184954554E-15 1.015060792060157E-16 -1
vn 2.1816845510345354E-15 2.5907856623968044E-23 -1
vn 7.480061930419021E-17 1.015061056757953E-16 -1
vn 3.0755336445582914E-15 -1.2129732033247867E-15 -1
vn -2.4839380330377026E-07 9.79651275656579E-08 -1
vn -1.9506275350522628E-07 -3.078745791640358E-08 -1
vn 1.9506275350522628E-07 -3.078745791640358E-08 -1
vn 2.4839380330377026E-07 9.79651275656579E-08 -1
vn 0.08715574443340302 -0.99619472026824944 0
vn 0.25881904363632204 -0.96592581272125248 0
vn 0.42261826992034912 -0.90630781650543216 0
vn 0.5735764503479004 -0.81915205717086784 0
vn 0.7071067690849304 -0.7071067690849304 0
vn 0.81915205717086784 -0.5735764503479004 0
vn 0.90630781650543216 -0.42261826992034912 0
vn 0.96592581272125248 -0.25881904363632204 0
vn 0.99619472026824944 -0.08715574443340302 0
vn -0.99619472026824944 -0.08715574443340302 0
vn -0.96592581272125248 -0.25881904363632204 0
vn -0.90630781650543216 -0.42261826992034912 0
vn -0.81915205717086784 -0.5735764503479004 0
vn -0.7071067690849304 -0.7071067690849304 0
vn -0.5735764503479004 -0.81915205717086784 0
vn -0.42261826992034912 -0.90630781650543216 0
vn -0.25881904363632204 -0.96592581272125248 0
vn -0.08715574443340302 -0.99619472026824944 0
vn -0.08715574443340302 -0.99619472026824944 7.740985135864788E-17
vn -1 -1.0744093466496116E-16 3.3306690738754696E-15
vn -0.08715574443340302 0.99619472026824944 0
vn -0.25881904363632204 0.96592581272125248 0
vn -0.42261826992034912 0.90630781650543216 0
vn -0.5735764503479004 0.81915205717086784 0
vn -0.81915205717086784 0.5735764503479004 0
vn -0.90630781650543216 0.42261826992034912 0
vn -0.96592581272125248 0.25881904363632204 0
vn -0.99619472026824944 0.08715574443340302 0
vn -0.99619472026824944 0.08715574443340302 3.3179949198857035E-15
vn 0.99619472026824944 0.08715574443340302 0
vn 0.96592581272125248 0.25881904363632204 0
vn 0.90630781650543216 0.42261826992034912 0
vn 0.81915205717086784 0.5735764503479004 0
vn 0.5735764503479004 0.81915205717086784 0
vn 0.42261826992034912 0.90630781650543216 0
vn 0.25881904363632204 0.96592581272125248 0
vn 0.08715574443340302 0.99619472026824944 0
vn 0 0 1
# 138 vertex normals

g obj_15734885
s 1
f 1//1 2//1 3//1
f 3//1 2//1 4//1
f 4//2 5//2 3//2
f 3//2 5//2 6//2
f 7//3 8//3 9//3
f 9//3 8//3 10//3
f 7//4 9//4 11//4
f 11//4 9//4 12//4
f 13//5 14//5 15//5
f 15//5 14//5 16//5
f 15//5 16//5 17//5
f 17//5 16//5 18//5
f 15//5 17//5 19//5
f 19//5 17//5 20//5
f 19//5 20//5 21//5
f 21//5 20//5 22//5
f 22//5 20//5 23//5
f 21//5 24//5 19//5
f 14//6 13//6 25//6
f 25//6 13//6 26//6
f 22//7 23//7 27//7
f 27//8 23//8 28//8
f 18//9 16//9 29//9
f 29//10 16//10 30//10
f 20//11 17//11 31//11
f 31//12 17//12 32//12
f 19//13 33//13 15//13
f 15//14 33//14 34//14
f 24//6 21//6 35//6
f 35//6 21//6 36//6
f 16//15 14//15 30//15
f 30//16 14//16 25//16
f 21//17 22//17 36//17
f 36//17 22//17 27//17
f 33//18 19//18 37//18
f 37//19 19//19 24//19
f 37//20 24//20 35//20
f 34//21 33//21 38//21
f 38//22 33//22 37//22
f 13//23 15//23 26//23
f 26//24 15//24 38//24
f 38//25 15//25 34//25
f 28//26 23//26 39//26
f 39//27 23//27 20//27
f 39//28 20//28 31//28
f 32//29 40//29 31//29
f 31//29 40//29 39//29
f 18//30 29//30 17//30
f 17//31 29//31 40//31
f 17//32 40//32 32//32
f 41//33 42//33 5//33
f 5//34 42//34 6//34
f 5//35 4//35 41//35
f 41//36 4//36 43//36
f 43//37 4//37 2//37
f 6//38 42//38 3//38
f 3//39 42//39 44//39
f 3//40 44//40 1//40
f 42//41 45//41 44//41
f 44//41 45//41 46//41
f 47//42 11//42 48//42
f 48//43 11//43 12//43
f 11//44 47//44 7//44
f 7//45 47//45 49//45
f 7//46 49//46 8//46
f 10//47 50//47 9//47
f 9//48 50//48 48//48
f 9//49 48//49 12//49
f 47//50 51//50 49//50
f 49//51 51//51 52//51
f 46//52 45//52 53//52
f 53//52 45//52 54//52
f 53//53 54//53 55//53
f 55//54 54//54 56//54
f 55//55 56//55 57//55
f 57//56 56//56 58//56
f 57//57 58//57 59//57
f 59//58 58//58 60//58
f 59//59 60//59 61//59
f 61//60 60//60 62//60
f 61//61 62//61 63//61
f 63//61 62//61 64//61
f 41//41 43//41 65//41
f 65//41 43//41 66//41
f 67//62 68//62 69//62
f 69//62 68//62 70//62
f 69//63 70//63 71//63
f 71//63 70//63 72//63
f 71//64 72//64 73//64
f 73//64 72//64 74//64
f 73//65 74//65 75//65
f 75//65 74//65 76//65
f 75//66 76//66 77//66
f 77//66 76//66 78//66
f 77//67 78//67 66//67
f 66//67 78//67 65//67
f 79//68 68//68 80//68
f 80//68 68//68 67//68
f 52//69 51//69 81//69
f 81//70 51//70 82//70
f 81//71 82//71 83//71
f 83//71 82//71 84//71
f 83//72 84//72 85//72
f 85//72 84//72 86//72
f 85//73 86//73 87//73
f 87//74 86//74 88//74
f 87//75 88//75 89//75
f 89//76 88//76 90//76
f 89//77 90//77 80//77
f 80//78 90//78 79//78
f 50//79 91//79 48//79
f 48//80 91//80 92//80
f 93//81 94//81 95//81
f 95//81 94//81 96//81
f 95//82 96//82 97//82
f 97//82 96//82 98//82
f 97//83 98//83 99//83
f 99//84 98//84 100//84
f 99//85 100//85 101//85
f 101//86 100//86 102//86
f 101//87 102//87 103//87
f 103//88 102//88 104//88
f 103//89 104//89 91//89
f 91//90 104//90 92//90
f 64//91 94//91 63//91
f 63//91 94//91 93//91
f 44//5 26//5 1//5
f 1//92 26//92 38//92
f 1//93 38//93 37//93
f 44//5 46//5 26//5
f 26//5 46//5 25//5
f 25//5 46//5 53//5
f 25//5 53//5 55//5
f 55//5 57//5 25//5
f 25//5 57//5 59//5
f 25//5 59//5 61//5
f 61//5 63//5 25//5
f 25//5 63//5 93//5
f 25//5 93//5 30//5
f 30//5 93//5 95//5
f 30//5 95//5 97//5
f 97//5 99//5 30//5
f 30//5 99//5 101//5
f 30//5 101//5 103//5
f 103//5 91//5 30//5
f 30//5 91//5 29//5
f 29//5 91//5 50//5
f 29//5 50//5 10//5
f 8//94 39//94 10//94
f 10//95 39//95 40//95
f 10//5 40//5 29//5
f 39//96 8//96 28//96
f 28//97 8//97 49//97
f 28//98 49//98 52//98
f 28//5 52//5 27//5
f 27//5 52//5 81//5
f 27//5 81//5 83//5
f 83//5 85//5 27//5
f 27//5 85//5 87//5
f 27//5 87//5 89//5
f 89//5 80//5 27//5
f 27//5 80//5 67//5
f 27//5 67//5 36//5
f 36//5 67//5 69//5
f 36//5 69//5 71//5
f 71//5 73//5 36//5
f 36//5 73//5 75//5
f 36//5 75//5 77//5
f 77//5 66//5 36//5
f 36//5 66//5 35//5
f 35//99 66//99 43//99
f 35//100 43//100 2//100
f 35//5 2//5 37//5
f 37//5 2//5 1//5
f 105//101 106//101 107//101
f 107//101 106//101 108//101
f 107//102 108//102 109//102
f 109//102 108//102 110//102
f 109//103 110//103 111//103
f 111//103 110//103 112//103
f 111//104 112//104 113//104
f 113//104 112//104 114//104
f 113//105 114//105 115//105
f 115//105 114//105 116//105
f 115//106 116//106 117//106
f 117//106 116//106 118//106
f 117//107 118//107 119//107
f 119//107 118//107 120//107
f 119//108 120//108 121//108
f 121//108 120//108 122//108
f 121//109 122//109 123//109
f 123//109 122//109 124//109
f 125//17 106//17 126//17
f 126//17 106//17 105//17
f 127//110 128//110 129//110
f 129//110 128//110 130//110
f 129//111 130//111 131//111
f 131//111 130//111 132//111
f 131//112 132//112 133//112
f 133//112 132//112 134//112
f 133//113 134//113 135//113
f 135//113 134//113 136//113
f 135//114 136//114 137//114
f 137//114 136//114 138//114
f 137//115 138//115 139//115
f 139//115 138//115 140//115
f 139//116 140//116 141//116
f 141//116 140//116 142//116
f 141//117 142//117 143//117
f 143//117 142//117 144//117
f 143//118 144//118 126//118
f 126//119 144//119 125//119
f 145//120 128//120 146//120
f 146//6 128//6 127//6
f 147//121 148//121 149//121
f 149//121 148//121 150//121
f 149//122 150//122 151//122
f 151//122 150//122 152//122
f 151//123 152//123 153//123
f 153//123 152//123 154//123
f 153//124 154//124 155//124
f 155//124 154//124 156//124
f 155//48 156//48 157//48
f 157//48 156//48 158//48
f 157//125 158//125 159//125
f 159//125 158//125 160//125
f 159//126 160//126 161//126
f 161//126 160//126 162//126
f 161//127 162//127 163//127
f 163//127 162//127 164//127
f 163//128 164//128 146//128
f 146//129 164//129 145//129
f 165//68 148//68 166//68
f 166//68 148//68 147//68
f 167//130 168//130 169//130
f 169//130 168//130 170//130
f 169//131 170//131 171//131
f 171//131 170//131 172//131
f 171//132 172//132 173//132
f 173//132 172//132 174//132
f 173//133 174//133 175//133
f 175//133 174//133 176//133
f 175//39 176//39 177//39
f 177//39 176//39 178//39
f 177//134 178//134 179//134
f 179//134 178//134 180//134
f 179//135 180//135 181//135
f 181//135 180//135 182//135
f 181//136 182//136 183//136
f 183//136 182//136 184//136
f 183//137 184//137 166//137
f 166//137 184//137 165//137
f 124//41 168//41 123//41
f 123//41 168//41 167//41
f 167//138 146//138 123//138
f 123//138 146//138 127//138
f 123//138 127//138 105//138
f 105//138 127//138 126//138
f 126//138 127//138 129//138
f 126//138 129//138 131//138
f 169//138 166//138 167//138
f 167//138 166//138 147//138
f 167//138 147//138 146//138
f 146//138 147//138 163//138
f 163//138 147//138 161//138
f 161//138 147//138 159//138
f 159//138 147//138 157//138
f 157//138 147//138 155//138
f 155//138 147//138 153//138
f 153//138 147//138 151//138
f 151//138 147//138 149//138
f 169//138 171//138 166//138
f 166//138 171//138 173//138
f 166//138 173//138 175//138
f 175//138 177//138 166//138
f 166//138 177//138 179//138
f 166//138 179//138 181//138
f 181//138 183//138 166//138
f 131//138 133//138 126//138
f 126//138 133//138 135//138
f 126//138 135//138 137//138
f 137//138 139//138 126//138
f 126//138 139//138 141//138
f 126//138 141//138 143//138
f 107//138 109//138 105//138
f 105//138 109//138 111//138
f 105//138 111//138 113//138
f 113//138 115//138 105//138
f 105//138 115//138 117//138
f 105//138 117//138 119//138
f 119//138 121//138 105//138
f 105//138 121//138 123//138
f 62//5 108//5 64//5
f 64//5 108//5 106//5
f 64//5 106//5 125//5
f 60//5 112//5 62//5
f 62//5 112//5 110//5
f 62//5 110//5 108//5
f 112//5 60//5 114//5
f 114//5 60//5 58//5
f 114//5 58//5 116//5
f 116//5 58//5 118//5
f 118//5 58//5 56//5
f 118//5 56//5 120//5
f 120//5 56//5 54//5
f 120//5 54//5 122//5
f 122//5 54//5 45//5
f 122//5 45//5 124//5
f 124//5 45//5 42//5
f 124//5 42//5 168//5
f 168//5 42//5 41//5
f 168//5 41//5 65//5
f 168//5 65//5 170//5
f 170//5 65//5 78//5
f 170//5 78//5 172//5
f 172//5 78//5 76//5
f 172//5 76//5 174//5
f 174//5 76//5 74//5
f 174//5 74//5 176//5
f 176//5 74//5 178//5
f 178//5 74//5 72//5
f 178//5 72//5 180//5
f 180//5 72//5 70//5
f 180//5 70//5 182//5
f 182//5 70//5 184//5
f 184//5 70//5 68//5
f 184//5 68//5 165//5
f 165//5 68//5 79//5
f 165//5 79//5 148//5
f 148//5 79//5 150//5
f 150//5 79//5 90//5
f 150//5 90//5 152//5
f 152//5 90//5 154//5
f 154//5 90//5 88//5
f 154//5 88//5 156//5
f 156//5 88//5 86//5
f 156//5 86//5 158//5
f 158//5 86//5 160//5
f 160//5 86//5 84//5
f 160//5 84//5 162//5
f 162//5 84//5 82//5
f 162//5 82//5 164//5
f 164//5 82//5 51//5
f 164//5 51//5 145//5
f 145//5 51//5 47//5
f 145//5 47//5 48//5
f 145//5 48//5 128//5
f 128//5 48//5 92//5
f 128//5 92//5 130//5
f 130//5 92//5 104//5
f 130//5 104//5 132//5
f 132//5 104//5 102//5
f 132//5 102//5 134//5
f 134//5 102//5 100//5
f 134//5 100//5 136//5
f 136//5 100//5 138//5
f 138//5 100//5 98//5
f 138//5 98//5 140//5
f 140//5 98//5 96//5
f 140//5 96//5 142//5
f 142//5 96//5 144//5
f 144//5 96//5 94//5
f 144//5 94//5 125//5
f 125//5 94//5 64//5
#364 polygons

